General
Complete name                    : Ghost.1990.avi
Format                           : AVI
File size                        : 1.37 GiB
Duration                         : 2h 1mn
Overall bit rate                 : 1 609 Kbps


Video

Format                           : MPEG-4 Visual
Codec ID/Hint                    : XviD
Duration                         : 2h 1mn
Bit rate                         : 1 472 Kbps
Width                            : 720 pixels
Height                           : 412 pixels
Display aspect ratio             : 16:9
Stream size                      : 1.25 GiB (91%)
Writing library                  : XviD 1.2.1 (UTC 2008-12-04)

Audio

Format                           : MPEG Audio
Codec ID/Hint                    : MP3
Duration                         : 2h 1mn
Bit rate                         : 128 Kbps
Channel(s)                       : 2 channels
Sampling rate                    : 48.0 KHz
Stream size                      : 111 MiB (8%)
Writing library                  : LAME3.97b

 
http://www.imdb.com/title/tt0099653/